<svg width="16" height="16" viewBox="0 0 16 16" fill="none" xmlns="http://www.w3.org/2000/svg">
<g clip-path="url(#clip0_1321_121)">
<rect width="16" height="16" fill="black"/>
<path d="M4.27783 4.62012C4.63265 4.5778 5.007 4.55664 5.40088 4.55664C5.83382 4.55664 6.22119 4.625 6.56299 4.76172C6.90804 4.89844 7.18636 5.07422 7.39795 5.28906C7.61279 5.50065 7.78857 5.7513 7.92529 6.04102C8.06201 6.33073 8.15641 6.61882 8.2085 6.90527C8.26383 7.18848 8.2915 7.47982 8.2915 7.7793C8.2915 8.76562 8.01481 9.55501 7.46143 10.1475C6.90804 10.7399 6.11051 11.0361 5.06885 11.0361L4.26807 11.0264C4.23551 9.67546 4.21924 8.66634 4.21924 7.99902C4.21924 6.79134 4.23877 5.66504 4.27783 4.62012ZM5.32764 11.5879C4.23714 11.5879 3.14827 11.6009 2.06104 11.627C1.97965 11.4023 1.97965 11.1924 2.06104 10.9971C2.76742 10.9255 3.12386 10.8294 3.13037 10.709C3.16943 9.68685 3.18896 8.66309 3.18896 7.6377C3.18896 6.58952 3.17269 5.68294 3.14014 4.91797C3.13363 4.79753 2.77067 4.7015 2.05127 4.62988C1.99593 4.42155 2.00244 4.21159 2.0708 4C2.47119 4.00651 3.71794 4.00977 5.81104 4.00977C6.26351 4.00977 6.67855 4.03743 7.05615 4.09277C7.43701 4.14811 7.82438 4.26042 8.21826 4.42969C8.61214 4.5957 8.94417 4.8138 9.21436 5.08398C9.48454 5.35417 9.70426 5.71875 9.87354 6.17773C10.0428 6.63672 10.1274 7.17383 10.1274 7.78906C10.1274 8.375 10.0282 8.89421 9.82959 9.34668C9.63102 9.79915 9.37061 10.1637 9.04834 10.4404C8.72933 10.7171 8.35335 10.945 7.92041 11.124C7.48747 11.2998 7.06104 11.4202 6.64111 11.4854C6.22119 11.5537 5.78337 11.5879 5.32764 11.5879ZM5.02979 4.7959C4.99072 5.93848 4.97119 7.00618 4.97119 7.99902C4.97119 8.80632 4.98421 9.75195 5.01025 10.8359C6.03564 10.8099 6.8055 10.5218 7.31982 9.97168C7.83415 9.42155 8.09131 8.69076 8.09131 7.7793C8.09131 7.42448 8.04899 7.08594 7.96436 6.76367C7.87972 6.43815 7.74463 6.1224 7.55908 5.81641C7.37354 5.51042 7.10173 5.26302 6.74365 5.07422C6.38883 4.88216 5.97054 4.77962 5.48877 4.7666C5.32926 4.7666 5.17627 4.77637 5.02979 4.7959ZM2.19775 11.417C2.89762 11.3975 3.82536 11.3877 4.98096 11.3877C5.39437 11.3877 5.79313 11.3568 6.17725 11.2949C6.56462 11.2298 6.95687 11.1126 7.354 10.9434C7.75114 10.7741 8.09456 10.5592 8.38428 10.2988C8.67399 10.0384 8.91162 9.69173 9.09717 9.25879C9.28597 8.82585 9.38037 8.33268 9.38037 7.7793C9.38037 5.39974 8.07341 4.20996 5.45947 4.20996C5.21859 4.20996 4.87679 4.21484 4.43408 4.22461C3.99137 4.23438 3.58936 4.23926 3.22803 4.23926C2.86995 4.23926 2.52979 4.22949 2.20752 4.20996C2.18148 4.26855 2.18148 4.34505 2.20752 4.43945C2.95622 4.51107 3.33382 4.66732 3.34033 4.9082C3.37288 5.67318 3.38916 6.58301 3.38916 7.6377C3.38916 8.6696 3.36963 9.69661 3.33057 10.7188C3.32406 10.9596 2.94645 11.1159 2.19775 11.1875C2.1652 11.2624 2.1652 11.3389 2.19775 11.417Z" fill="#FF0000"/>
<path d="M10.0674 4.75684C9.81673 4.77637 9.59212 4.83659 9.39355 4.9375C9.19499 5.03841 9.02083 5.17025 8.87109 5.33301C8.72135 5.49251 8.59277 5.67643 8.48535 5.88477C8.38118 6.08984 8.29492 6.30794 8.22656 6.53906C8.16146 6.77018 8.11263 7.00944 8.08008 7.25684C8.05078 7.50098 8.03613 7.74186 8.03613 7.97949C8.03613 8.21712 8.05078 8.45964 8.08008 8.70703C8.11263 8.95117 8.16309 9.1888 8.23145 9.41992C8.2998 9.65104 8.38607 9.86914 8.49023 10.0742C8.59766 10.2793 8.72624 10.4616 8.87598 10.6211C9.02897 10.7773 9.20312 10.9043 9.39844 11.002C9.59701 11.0996 9.81999 11.1582 10.0674 11.1777C10.3213 11.1582 10.5475 11.0996 10.7461 11.002C10.9447 10.901 11.1188 10.7725 11.2686 10.6162C11.4215 10.4567 11.5501 10.2744 11.6543 10.0693C11.7617 9.861 11.848 9.6429 11.9131 9.41504C11.9814 9.18392 12.0303 8.94629 12.0596 8.70215C12.0921 8.45475 12.1084 8.21387 12.1084 7.97949C12.1084 7.74186 12.0921 7.50098 12.0596 7.25684C12.0303 7.00944 11.9814 6.77018 11.9131 6.53906C11.848 6.30469 11.7617 6.08496 11.6543 5.87988C11.5501 5.67155 11.4215 5.48763 11.2686 5.32812C11.1188 5.16862 10.943 5.03841 10.7412 4.9375C10.5426 4.83659 10.318 4.77637 10.0674 4.75684ZM9.89648 11.3877C9.57422 11.3877 9.28613 11.3405 9.03223 11.2461C8.77832 11.1484 8.55371 11.0182 8.3584 10.8555C8.16634 10.6895 8.00195 10.4958 7.86523 10.2744C7.73177 10.0531 7.62109 9.81706 7.5332 9.56641C7.44857 9.3125 7.38672 9.05046 7.34766 8.78027C7.30859 8.50684 7.28906 8.23991 7.28906 7.97949C7.28906 7.71908 7.30859 7.45378 7.34766 7.18359C7.38672 6.91016 7.44857 6.64648 7.5332 6.39258C7.61784 6.13867 7.72852 5.89941 7.86523 5.6748C8.00195 5.4502 8.16634 5.25488 8.3584 5.08887C8.55046 4.92285 8.77344 4.79102 9.02734 4.69336C9.28451 4.5957 9.57422 4.54688 9.89648 4.54688C10.1927 4.54688 10.458 4.5957 10.6924 4.69336C10.9268 4.78776 11.1318 4.9196 11.3076 5.08887C11.4867 5.25488 11.6396 5.4502 11.7666 5.6748C11.8936 5.89941 11.9961 6.13867 12.0742 6.39258C12.1556 6.64648 12.2142 6.91016 12.25 7.18359C12.2891 7.45378 12.3086 7.71908 12.3086 7.97949C12.3086 8.23991 12.2907 8.50521 12.2549 8.77539C12.2191 9.04232 12.1605 9.30273 12.0791 9.55664C12.001 9.80729 11.8984 10.0449 11.7715 10.2695C11.6478 10.4909 11.4964 10.6846 11.3174 10.8506C11.1383 11.0166 10.9316 11.1484 10.6973 11.2461C10.4629 11.3405 10.196 11.3877 9.89648 11.3877ZM9.89648 11.7393C10.1211 11.7393 10.3636 11.7165 10.624 11.6709C10.8844 11.6253 11.1432 11.5472 11.4004 11.4365C11.6608 11.3258 11.9115 11.1777 12.1523 10.9922C12.3932 10.8066 12.6048 10.5755 12.7871 10.2988C12.9727 10.0189 13.1208 9.68848 13.2314 9.30762C13.3421 8.9235 13.3975 8.48079 13.3975 7.97949C13.3975 7.48796 13.3421 7.05339 13.2314 6.67578C13.124 6.29492 12.9792 5.96452 12.7969 5.68457C12.6146 5.40462 12.4046 5.17025 12.167 4.98145C11.9294 4.79264 11.6803 4.64128 11.4199 4.52734C11.1595 4.41016 10.8975 4.32715 10.6338 4.27832C10.3734 4.22624 10.1276 4.2002 9.89648 4.2002C9.67188 4.2002 9.42448 4.22298 9.1543 4.26855C8.88411 4.31087 8.6123 4.38737 8.33887 4.49805C8.06543 4.60547 7.80013 4.75195 7.54297 4.9375C7.28581 5.12305 7.05794 5.35579 6.85938 5.63574C6.66081 5.91569 6.5013 6.24935 6.38086 6.63672C6.26042 7.02083 6.2002 7.46842 6.2002 7.97949C6.2002 8.47428 6.25716 8.91048 6.37109 9.28809C6.48828 9.66569 6.6429 9.99447 6.83496 10.2744C7.02702 10.5511 7.24837 10.7839 7.49902 10.9727C7.75293 11.1582 8.0166 11.3079 8.29004 11.4219C8.56348 11.5358 8.83854 11.6172 9.11523 11.666C9.39193 11.7148 9.65234 11.7393 9.89648 11.7393ZM10.0674 11.959C9.41309 11.959 8.83366 11.863 8.3291 11.6709C7.82454 11.4821 7.39974 11.2152 7.05469 10.8701C6.70964 10.5218 6.44759 10.1035 6.26855 9.61523C6.08952 9.1237 6 8.57845 6 7.97949C6 7.38053 6.08952 6.83691 6.26855 6.34863C6.44759 5.8571 6.70964 5.4388 7.05469 5.09375C7.39974 4.74544 7.82454 4.47689 8.3291 4.28809C8.83366 4.09603 9.41309 4 10.0674 4C10.6826 4 11.2409 4.08789 11.7422 4.26367C12.2467 4.43945 12.6764 4.69661 13.0312 5.03516C13.3893 5.37044 13.6644 5.78548 13.8564 6.28027C14.0518 6.77507 14.1494 7.34147 14.1494 7.97949C14.1494 8.62077 14.0518 9.1888 13.8564 9.68359C13.6644 10.1751 13.3893 10.5902 13.0312 10.9287C12.6764 11.2673 12.2467 11.5228 11.7422 11.6953C11.2409 11.8711 10.6826 11.959 10.0674 11.959Z" fill="white"/>
</g>
<defs>
<clipPath id="clip0_1321_121">
<rect width="16" height="16" fill="white"/>
</clipPath>
</defs>
</svg>
